<svg width="56" height="56" viewBox="0 0 56 56" fill="none" xmlns="http://www.w3.org/2000/svg">
<path fill-rule="evenodd" clip-rule="evenodd" d="M11.0012 50.2513C4.31348 45.1345 0 37.071 0 28C0 12.536 12.536 0 28 0C43.464 0 56 12.536 56 28C56 37.5229 51.246 45.9355 43.9818 50.9939C43.9939 50.6645 44 50.3331 44 50C44 39.834 38.3243 31.3551 30.7858 29.4164C34.4132 28.0792 37 24.5917 37 20.5C37 15.2533 32.7467 11 27.5 11C22.2533 11 18 15.2533 18 20.5C18 24.5917 20.5868 28.0792 24.2142 29.4164C16.6757 31.3551 11 39.834 11 50C11 50.0839 11.0004 50.1676 11.0012 50.2513Z" fill="#1C1C1C"  shape-rendering="geometricPrecision"/>
<path fill-rule="evenodd" clip-rule="evenodd" d="M33.391 30.378C39.2515 33.2297 43.5073 40.2119 43.96 48.5267C43.9865 49.0134 44 49.5047 44 50C44 50.3331 43.9939 50.6645 43.9818 50.9939C44.4388 50.6757 44.8859 50.3442 45.3224 50C45.5494 49.821 45.7736 49.6386 45.9948 49.4528C52.1117 44.3165 56 36.6123 56 28C56 12.536 43.464 0 28 0C12.536 0 0 12.536 0 28C0 36.1473 3.47974 43.4819 9.03408 48.5986C9.56348 49.0863 10.1117 49.5538 10.6776 50C10.7848 50.0845 10.8927 50.1683 11.0012 50.2513C11.0004 50.1676 11 50.0839 11 50C11 49.241 11.0316 48.4914 11.0933 47.7533C11.7596 39.7807 15.9312 33.1408 21.609 30.378C22.4467 29.9703 23.3173 29.6471 24.2142 29.4164C23.3438 29.0956 22.5334 28.6509 21.8042 28.1039C19.4944 26.3709 18 23.6099 18 20.5C18 15.2533 22.2533 11 27.5 11C32.7467 11 37 15.2533 37 20.5C37 23.6099 35.5056 26.3709 33.1958 28.1039C32.4666 28.6509 31.6562 29.0956 30.7858 29.4164C31.6827 29.6471 32.5533 29.9703 33.391 30.378ZM35.1831 29.0565C40.9698 32.3216 44.9893 39.1043 45.8344 46.9194C50.8642 42.1766 54 35.4544 54 28C54 13.6406 42.3594 2 28 2C13.6406 2 2 13.6406 2 28C2 35.0042 4.76815 41.3614 9.27489 46.0382C10.317 38.5968 14.2488 32.1982 19.8169 29.0565C17.4746 26.9522 16 23.8995 16 20.5C16 14.1487 21.1487 8.99999 27.5 8.99999C33.8513 8.99999 39 14.1487 39 20.5C39 23.8995 37.5254 26.9522 35.1831 29.0565Z" fill="#1C1C1C"  shape-rendering="geometricPrecision"/>
<path fill-rule="evenodd" clip-rule="evenodd" d="M28 54C42.3594 54 54 42.3594 54 28C54 13.6406 42.3594 2 28 2C13.6406 2 2 13.6406 2 28C2 42.3594 13.6406 54 28 54ZM28 56C43.464 56 56 43.464 56 28C56 12.536 43.464 0 28 0C12.536 0 0 12.536 0 28C0 43.464 12.536 56 28 56Z" fill="#1C1C1C"  shape-rendering="geometricPrecision"/>
<path fill-rule="evenodd" clip-rule="evenodd" d="M28 52.1429C41.3337 52.1429 52.1429 41.3337 52.1429 28C52.1429 14.6663 41.3337 3.85714 28 3.85714C14.6663 3.85714 3.85714 14.6663 3.85714 28C3.85714 41.3337 14.6663 52.1429 28 52.1429ZM28 54C42.3594 54 54 42.3594 54 28C54 13.6406 42.3594 2 28 2C13.6406 2 2 13.6406 2 28C2 42.3594 13.6406 54 28 54Z" fill="#1C1C1C"  shape-rendering="geometricPrecision"/>
</svg>
