<svg width="56" height="56" viewBox="0 0 56 56" fill="none" xmlns="http://www.w3.org/2000/svg">
<path d="M56 28C56 43.464 43.464 56 28 56C12.536 56 0 43.464 0 28C0 12.536 12.536 0 28 0C43.464 0 56 12.536 56 28Z" fill="white"/>
<path fill-rule="evenodd" clip-rule="evenodd" d="M28 54C42.3594 54 54 42.3594 54 28C54 13.6406 42.3594 2 28 2C13.6406 2 2 13.6406 2 28C2 42.3594 13.6406 54 28 54ZM28 56C43.464 56 56 43.464 56 28C56 12.536 43.464 0 28 0C12.536 0 0 12.536 0 28C0 43.464 12.536 56 28 56Z" fill="white"/>
<path fill-rule="evenodd" clip-rule="evenodd" d="M54.9183 35.7888H48.927L54.0001 38.5C54.4451 37.458 54.6018 36.8914 54.9183 35.7888ZM48.7352 46.9181L34.446 37.5778V55.2578C40.0381 53.9699 44.9875 50.9924 48.7352 46.9181Z" fill="#00759D"/>
<path fill-rule="evenodd" clip-rule="evenodd" d="M1.00011 35.7888H6.99146L1.91839 38.5C1.47334 37.458 1.31668 36.8914 1.00011 35.7888ZM7.18322 46.9181L21.4724 37.5778V55.2578C15.8804 53.9699 10.9309 50.9924 7.18322 46.9181Z" fill="#00759D"/>
<path fill-rule="evenodd" clip-rule="evenodd" d="M54.9805 20.469H48.927L54 17.5C54.445 18.542 54.6639 19.3664 54.9805 20.469ZM49 9.5L34.446 18.68V0.747967C40.0381 2.03588 45.5 5.5 49 9.5Z" fill="#00759D"/>
<path fill-rule="evenodd" clip-rule="evenodd" d="M1 20.469H7.05347L1.98047 17.5C1.53542 18.542 1.31656 19.3664 1 20.469ZM6.98047 9.5L21.5344 18.68V0.747967C15.9424 2.03588 10.4805 5.5 6.98047 9.5Z" fill="#00759D"/>
<path fill-rule="evenodd" clip-rule="evenodd" d="M4.70843 12.4543C4.98037 12.0477 5.26266 11.6486 5.55495 11.2574L20.7637 21.2381H18.0933L4.70843 12.4543ZM0 28C0 26.4196 0.130935 24.8698 0.382549 23.3608H25V0.158831C25.9856 0.0538451 26.9865 0 28 0C29.0135 0 30.0144 0.0538451 31 0.158831V23.3608H55.6175C55.8691 24.8698 56 26.4196 56 28C56 29.6579 55.8559 31.2821 55.5796 32.8608H31V55.8412C30.0144 55.9462 29.0135 56 28 56C26.9865 56 25.9856 55.9462 25 55.8412V32.8608H0.42041C0.144083 31.2821 0 29.6579 0 28ZM35.2363 21.2381L50.4451 11.2574C50.7373 11.6486 51.0196 12.0477 51.2916 12.4543L37.9067 21.2381H35.2363ZM37.9067 35.7143L50.8395 44.2014C50.5558 44.6006 50.2618 44.9921 49.9581 45.3754L35.2363 35.7143H37.9067ZM20.7637 35.7143L6.04191 45.3754C5.73817 44.9921 5.44425 44.6006 5.16054 44.2014L18.0933 35.7143H20.7637Z" fill="#E40037"/>
</svg>
