<svg width="56" height="56" viewBox="0 0 56 56" fill="none" xmlns="http://www.w3.org/2000/svg">
<path d="M28 12.9231C19.6875 12.9231 12.9231 19.6875 12.9231 28C12.9231 36.3125 19.6875 43.0769 28 43.0769C36.3125 43.0769 43.0769 36.3125 43.0769 28C43.0769 19.6875 36.3125 12.9231 28 12.9231ZM28 8.61538C29.1891 8.61538 30.1538 7.6506 30.1538 6.46154V2.15385C30.1538 0.964788 29.1891 0 28 0C26.8109 0 25.8462 0.964788 25.8462 2.15385V6.46154C25.8462 7.6506 26.8109 8.61538 28 8.61538ZM28 47.3846C26.8109 47.3846 25.8462 48.3494 25.8462 49.5385V53.8462C25.8462 55.0352 26.8109 56 28 56C29.1891 56 30.1538 55.0352 30.1538 53.8462V49.5385C30.1538 48.3494 29.1891 47.3846 28 47.3846ZM44.7513 14.2917L47.7969 11.246C48.6383 10.4047 48.6383 9.04171 47.7969 8.20037C46.9556 7.35902 45.5926 7.35902 44.7513 8.20037L41.7056 11.246C40.8642 12.0874 40.8642 13.4504 41.7056 14.2917C42.5469 15.1331 43.9099 15.1331 44.7513 14.2917ZM11.2487 41.7084L8.20306 44.7541C7.36171 45.5953 7.36171 46.9583 8.20306 47.7996C9.0444 48.641 10.4074 48.641 11.2487 47.7996L14.2944 44.7541C15.1357 43.9099 15.1357 42.5496 14.2944 41.7084C13.4532 40.8669 12.0901 40.8641 11.2487 41.7084ZM8.61538 28C8.61538 26.8109 7.6506 25.8462 6.46154 25.8462H2.15385C0.964788 25.8462 0 26.8109 0 28C0 29.1891 0.964788 30.1538 2.15385 30.1538H6.46154C7.6506 30.1538 8.61538 29.1891 8.61538 28ZM53.8462 25.8462H49.5385C48.3494 25.8462 47.3846 26.8109 47.3846 28C47.3846 29.1891 48.3494 30.1538 49.5385 30.1538H53.8462C55.0352 30.1538 56 29.1891 56 28C56 26.8109 55.0352 25.8462 53.8462 25.8462ZM11.2459 14.2917C12.0874 15.1331 13.4504 15.1331 14.2916 14.2917C15.1331 13.4504 15.1331 12.0874 14.2916 11.246L11.2459 8.20037C10.4046 7.35902 9.04171 7.35902 8.20023 8.20037C7.35888 9.04171 7.35888 10.4047 8.20023 11.246L11.2459 14.2917ZM44.7541 41.7055C43.9099 40.8641 42.5496 40.8641 41.7084 41.7055C40.8669 42.5468 40.8643 43.9098 41.7084 44.7511L44.7541 47.7968C45.5953 48.6382 46.9583 48.6382 47.7996 47.7968C48.641 46.9555 48.641 45.5925 47.7996 44.7511L44.7541 41.7055Z" fill="#1C1C1C"/>
</svg>
