<svg width="56" height="57" viewBox="0 0 56 57" fill="none" xmlns="http://www.w3.org/2000/svg">
<path d="M56 28.0927C56 43.5567 43.464 56.0927 28 56.0927C12.536 56.0927 0 43.5567 0 28.0927C0 12.6288 12.536 0.0927429 28 0.0927429C43.464 0.0927429 56 12.6288 56 28.0927Z" fill="white"/>
<path fill-rule="evenodd" clip-rule="evenodd" d="M54.1333 17.9715C50.108 7.46196 39.9254 0 28 0C16.0746 0 5.89204 7.46196 1.8667 17.9715H54.1333Z" fill="#E40037"/>
<path fill-rule="evenodd" clip-rule="evenodd" d="M51.0241 15.9609C46.6874 7.66708 38.0022 2.01061 28 2.01061C17.9978 2.01061 9.3126 7.66708 4.97588 15.9609H51.0241ZM53.271 15.9609C48.7761 6.52292 39.1498 0 28 0C16.8502 0 7.22388 6.52292 2.72899 15.9609C2.41633 16.6174 2.12849 17.288 1.8667 17.9715H54.1333C53.8715 17.288 53.5837 16.6174 53.271 15.9609Z" fill="#E40037"/>
<path fill-rule="evenodd" clip-rule="evenodd" d="M28 56.1855C39.9254 56.1855 50.108 48.7235 54.1333 38.214H1.8667C5.89205 48.7235 16.0746 56.1855 28 56.1855Z" fill="#00759D"/>
</svg>
