<svg width="56" height="56" viewBox="0 0 56 56" fill="none" xmlns="http://www.w3.org/2000/svg">
<path fill-rule="evenodd" clip-rule="evenodd" d="M28 56C43.464 56 56 43.464 56 28C56 12.536 43.464 0 28 0C12.536 0 0 12.536 0 28C0 43.464 12.536 56 28 56ZM11.6125 13C11.0603 13 10.6125 13.4477 10.6125 14V21.4444H7.00032C6.37146 21.4444 5.89868 22.018 6.01871 22.6353L9.85204 42.3496C9.94341 42.8195 10.355 43.1587 10.8337 43.1587H25.7082H30.1205H44.995C45.4737 43.1587 45.8853 42.8195 45.9766 42.3496L49.81 22.6353C49.93 22.018 49.4572 21.4444 48.8283 21.4444H45.2161V16.4127C45.2161 15.8604 44.7684 15.4127 44.2161 15.4127H35.9458H32.2711H24.2041L22.9705 13.4649C22.7871 13.1755 22.4683 13 22.1257 13H11.6125ZM42.8034 18.8254V21.4444L30.1205 21.4444L28.0242 21.4444H13.0252V18.8254C13.0252 18.2731 13.4729 17.8254 14.0252 17.8254L20.2633 17.8254L30.1804 17.8254H41.8034C42.3557 17.8254 42.8034 18.2731 42.8034 18.8254Z" fill="#1C1C1C"/>
</svg>
