<svg width="64" height="96" viewBox="0 0 64 96" fill="none" xmlns="http://www.w3.org/2000/svg">
<path fill-rule="evenodd" clip-rule="evenodd" d="M32 47.6098C40.621 47.6098 47.6098 40.621 47.6098 32C47.6098 23.379 40.621 16.3902 32 16.3902C23.379 16.3902 16.3902 23.379 16.3902 32C16.3902 40.621 23.379 47.6098 32 47.6098ZM32 64C49.6731 64 64 49.6731 64 32C64 14.3269 49.6731 0 32 0C14.3269 0 0 14.3269 0 32C0 49.6731 14.3269 64 32 64Z" fill="#FF2B51"/>
<path d="M32 95.0244L59.0369 49.0732H4.96313L32 95.0244Z" fill="#FF2B51"/>
<path fill-rule="evenodd" clip-rule="evenodd" d="M32 95.0244L4.96313 49.0732H59.0369L32 95.0244ZM32 94.6396L5.30433 49.2683H58.6957L32 94.6396Z" fill="#FF2B51"/>
</svg>
