<svg width="56" height="56" viewBox="0 0 56 56" fill="none" xmlns="http://www.w3.org/2000/svg">
<path d="M30 28C30 29.1046 29.1046 30 28 30C26.8954 30 26 29.1046 26 28C26 26.8954 26.8954 26 28 26C29.1046 26 30 26.8954 30 28Z" fill="#EBEBEB"/>
<path d="M37 28C37 29.1046 36.1046 30 35 30C33.8954 30 33 29.1046 33 28C33 26.8954 33.8954 26 35 26C36.1046 26 37 26.8954 37 28Z" fill="#EBEBEB"/>
<path d="M23 28C23 29.1046 22.1046 30 21 30C19.8954 30 19 29.1046 19 28C19 26.8954 19.8954 26 21 26C22.1046 26 23 26.8954 23 28Z" fill="#EBEBEB"/>
<path fill-rule="evenodd" clip-rule="evenodd" d="M56 28C56 43.464 43.464 56 28 56C12.536 56 0 43.464 0 28C0 12.536 12.536 0 28 0C43.464 0 56 12.536 56 28ZM11 21C11 18.2386 13.2386 16 16 16H40C42.7614 16 45 18.2386 45 21V35C45 37.7614 42.7614 40 40 40H37V47L32.5455 40H16C13.2386 40 11 37.7614 11 35V21Z" fill="#EBEBEB"/>
<path fill-rule="evenodd" clip-rule="evenodd" d="M32.5455 40H16C13.2386 40 11 37.7614 11 35V21C11 18.2386 13.2386 16 16 16H40C42.7614 16 45 18.2386 45 21V35C45 37.7614 42.7614 40 40 40H37V47L32.5455 40ZM39 42H40C43.866 42 47 38.866 47 35V21C47 17.134 43.866 14 40 14H16C12.134 14 9 17.134 9 21V35C9 38.866 12.134 42 16 42H31.4476L37.8542 52.0676C34.8151 53.3133 31.4878 54 28 54C13.6406 54 2 42.3594 2 28C2 13.6406 13.6406 2 28 2C42.3594 2 54 13.6406 54 28C54 38.4279 47.861 47.4219 39 51.5653V42ZM39 53.7566C48.9958 49.4821 56 39.559 56 28C56 12.536 43.464 0 28 0C12.536 0 0 12.536 0 28C0 43.464 12.536 56 28 56C31.8834 56 35.5822 55.2094 38.9442 53.7804C38.9628 53.7725 38.9814 53.7646 39 53.7566Z" fill="#EBEBEB"/>
</svg>
