<svg width="43" height="44" viewBox="0 0 43 44" fill="none" xmlns="http://www.w3.org/2000/svg">
<path fill-rule="evenodd" clip-rule="evenodd" d="M8.98214 34.8078C21.5377 34.8078 31.716 24.6295 31.716 12.0739C31.716 7.63784 30.4454 3.49851 28.2483 0C36.4811 3.41814 42.271 11.5355 42.271 21.0051C42.271 33.5607 32.0927 43.739 19.5371 43.739C11.4177 43.739 4.2924 39.4824 0.270996 33.079C2.95389 34.1929 5.89621 34.8078 8.98214 34.8078Z" fill="#EBEBEB"/>
<path fill-rule="evenodd" clip-rule="evenodd" d="M33.3398 12.0739C33.3398 25.5263 22.4345 36.4317 8.98214 36.4317C7.53675 36.4317 6.12001 36.3056 4.74259 36.0637C8.55301 39.8079 13.776 42.1151 19.5371 42.1151C31.1959 42.1151 40.6471 32.6638 40.6471 21.0051C40.6471 13.9837 37.2189 7.76052 31.9417 3.9219C32.8471 6.47156 33.3398 9.21611 33.3398 12.0739ZM29.5746 2.42907C30.9483 5.35701 31.716 8.62583 31.716 12.0739C31.716 24.6295 21.5377 34.8078 8.98214 34.8078C6.86994 34.8078 4.82501 34.5197 2.88451 33.9808C1.98993 33.7323 1.11755 33.4305 0.270996 33.079C0.778627 33.8874 1.33572 34.6615 1.93803 35.3971C6.10713 40.4892 12.4426 43.739 19.5371 43.739C32.0927 43.739 42.271 33.5607 42.271 21.0051C42.271 12.5531 37.6586 5.17835 30.8136 1.26059C29.9895 0.788899 29.133 0.367316 28.2483 0C28.7376 0.77917 29.181 1.59013 29.5746 2.42907Z" fill="#EBEBEB"/>
</svg>
