<svg width="36" height="35" viewBox="0 0 36 35" fill="none" xmlns="http://www.w3.org/2000/svg">
<path fill-rule="evenodd" clip-rule="evenodd" d="M18.0147 0C8.26484 0 0.383057 8.02078 0.383057 17.9436C0.383057 25.8755 5.43317 32.5896 12.439 34.966C13.3149 35.1446 13.6358 34.5798 13.6358 34.1048C13.6358 33.6888 13.6069 32.2629 13.6069 30.7772C8.70223 31.847 7.68091 28.6383 7.68091 28.6383C6.8927 26.5587 5.72481 26.0242 5.72481 26.0242C4.11951 24.925 5.84173 24.925 5.84173 24.925C7.62243 25.0439 8.55682 26.7669 8.55682 26.7669C10.1329 29.4998 12.6725 28.7276 13.6943 28.2522C13.8401 27.0935 14.3074 26.2915 14.8037 25.8459C10.8918 25.4299 6.77612 23.8852 6.77612 16.9928C6.77612 15.0321 7.47624 13.4279 8.58569 12.1803C8.41063 11.7348 7.79745 9.89256 8.76106 7.42689C8.76106 7.42689 10.2498 6.95149 13.6066 9.26876C15.0437 8.876 16.5258 8.6762 18.0147 8.67448C19.5034 8.67448 21.021 8.88266 22.4224 9.26876C25.7795 6.95149 27.2682 7.42689 27.2682 7.42689C28.2319 9.89256 27.6183 11.7348 27.4433 12.1803C28.5819 13.4279 29.2532 15.0321 29.2532 16.9928C29.2532 23.8852 25.1375 25.4 21.1964 25.8459C21.8388 26.4103 22.3931 27.4796 22.3931 29.1731C22.3931 31.5794 22.3643 33.5105 22.3643 34.1045C22.3643 34.5798 22.6855 35.1446 23.561 34.9663C30.5669 32.5892 35.617 25.8755 35.617 17.9436C35.6459 8.02078 27.7352 0 18.0147 0Z" fill="#3FC1C9"/>
</svg>
