<svg width="35" height="38" viewBox="0 0 35 38" fill="none" xmlns="http://www.w3.org/2000/svg">
<path d="M11.4039 12.5647C9.90389 13.0647 8.40389 15.0647 9.40389 17.5647C10.604 20.3647 13.9039 24.0647 15.4038 25.5647C17.4038 27.0647 20.4038 29.2647 22.4038 26.0647C24.9038 22.0647 27.4038 24.0647 28.4038 24.5647C29.4038 25.0647 31.4038 26.5647 32.4038 27.5647C33.4038 28.5647 35.9038 30.0647 33.4038 33.0647C30.9038 36.0647 26.9038 37.5647 22.9038 37.0647C18.9038 36.5647 16.9038 36.5647 11.9038 31.5647C4.40381 24.0646 3.90383 22.5647 1.40383 17.5647C-1.09617 12.5647 0.403832 9.06469 0.903832 7.0647C1.40383 5.0647 5.40383 0.564689 7.40383 0.0646894C9.40383 -0.435311 10.4038 2.06469 11.9038 4.06469C13.4038 6.06469 13.9038 8.06469 13.9038 9.06469C13.9038 10.0647 12.9039 12.0647 11.4039 12.5647Z" fill="#FF2B51"/>
</svg>
