<svg width="114" height="90" viewBox="0 0 114 90" fill="none" xmlns="http://www.w3.org/2000/svg">
<rect x="30" y="15" width="57" height="64" fill="white"/>
<path fill-rule="evenodd" clip-rule="evenodd" d="M1 42.9773C4.14832 42.6918 7.31245 39.7236 9.70428 34.5214C12.243 28.9997 14 20.7982 14 10H13C13 20.7018 11.257 28.7503 8.79572 34.1036C6.31423 39.5009 3.18902 42 0.5 42H0V45.5H1V42.9773Z" fill="#8612FB"/>
<path fill-rule="evenodd" clip-rule="evenodd" d="M1 46.5227C4.14832 46.8082 7.31245 49.7764 9.70428 54.9786C12.243 60.5003 14 68.7018 14 79.5H13C13 68.7982 11.257 60.7497 8.79572 55.3964C6.31423 49.9991 3.18902 47.5 0.5 47.5H0V45.5H1V46.5227Z" fill="#8612FB"/>
<path d="M0.5 47V42.5C4.1 42.5 6.66667 39.1667 7.5 37.5C8.33333 36.1667 10.4 31.9 12 25.5C13.6 19.1 13.6667 12.5 13.5 10H28.5L30 79.5C24.5 82.1667 13.5 85.9 13.5 79.5C13.5 71.5 12.5 64 9.5 55.5C7.1 48.7 2.5 47 0.5 47Z" fill="#8612FB"/>
<path fill-rule="evenodd" clip-rule="evenodd" d="M113 42.9773C109.852 42.6918 106.688 39.7236 104.296 34.5214C101.757 28.9997 100 20.7982 100 10H101C101 20.7018 102.743 28.7503 105.204 34.1036C107.686 39.5009 110.811 42 113.5 42H114V45.5H113V42.9773Z" fill="#8612FB"/>
<path fill-rule="evenodd" clip-rule="evenodd" d="M113 46.5227C109.852 46.8082 106.688 49.7764 104.296 54.9786C101.757 60.5003 100 68.7018 100 79.5H101C101 68.7982 102.743 60.7497 105.204 55.3964C107.686 49.9991 110.811 47.5 113.5 47.5H114V45.5H113V46.5227Z" fill="#8612FB"/>
<path d="M113.5 47V42.5C109.9 42.5 107.333 39.1667 106.5 37.5C105.667 36.1667 103.6 31.9 102 25.5C100.4 19.1 100.333 12.5 100.5 10H85.5L84 79.5C89.5 82.1667 100.5 85.9 100.5 79.5C100.5 71.5 101.5 64 104.5 55.5C106.9 48.7 111.5 47 113.5 47Z" fill="#8612FB"/>
<path fill-rule="evenodd" clip-rule="evenodd" d="M23 0C17.4771 0 13 4.47714 13 10V80C13 85.5228 17.4771 90 23 90H91C96.5229 90 101 85.5228 101 80V10C101 4.47714 96.5229 0 91 0H23ZM75.8499 49.07C74.0764 46.83 71.813 45.4533 69.0598 44.94C71.5798 44.1467 73.5864 42.7933 75.0798 40.88C76.6199 38.9667 77.3896 36.5867 77.3896 33.74C77.3896 31.3133 76.7598 29.1433 75.4998 27.23C74.2864 25.3167 72.4666 23.8233 70.0398 22.75C67.6597 21.6767 64.813 21.14 61.4998 21.14H41.3398V70H62.4097C65.7231 70 68.593 69.44 71.0198 68.32C73.4465 67.2 75.2898 65.66 76.5498 63.7C77.8564 61.6933 78.5098 59.3833 78.5098 56.77C78.5098 53.8767 77.623 51.31 75.8499 49.07ZM60.0999 41.3H51.1396V29.05H60.0999C62.4331 29.05 64.2297 29.5867 65.4897 30.66C66.7498 31.7333 67.3799 33.25 67.3799 35.21C67.3799 37.17 66.7498 38.6867 65.4897 39.76C64.2297 40.7867 62.4331 41.3 60.0999 41.3ZM66.5398 60.34C65.2332 61.46 63.3896 62.02 61.0098 62.02H51.1396V48.86H60.7998C63.1797 48.86 65.0698 49.4667 66.4697 50.68C67.8699 51.8467 68.5698 53.48 68.5698 55.58C68.5698 57.6333 67.8931 59.22 66.5398 60.34Z" fill="#8612FB"/>
</svg>
