<svg width="50" height="56" viewBox="0 0 50 56" fill="none" xmlns="http://www.w3.org/2000/svg">
<path d="M2 14.5L25.5 1L49 14.5V41L25.5 55L2 41V14.5Z" fill="white"/>
<path d="M12.0899 35.37C12.0899 35.38 12.0999 35.38 12.0999 35.39L4.3999 39.89L12.0899 35.37Z" fill="url(#paint0_linear_122_414)"/>
<path d="M12.0899 35.37C12.0899 35.38 12.0999 35.38 12.0999 35.39L4.3999 39.89L12.0899 35.37Z" fill="url(#paint1_linear_122_414)"/>
<path d="M24.9999 4.20999L4.3999 16.11V39.89L12.0899 35.37C10.9099 33.2 10.2399 30.72 10.2399 28.07C10.2399 25.19 11.0399 22.51 12.4199 20.2C15.0999 15.74 19.9899 12.74 25.5699 12.74C30.8399 12.74 35.6799 15.41 38.5099 19.86L38.1199 20.1L31.5499 23.97C30.1999 21.98 27.9799 20.81 25.5699 20.81C22.9499 20.81 20.6599 22.2 19.3799 24.28C18.6999 25.39 18.3099 26.68 18.3099 28.07C18.3099 29.23 18.5799 30.32 19.0599 31.29L25.1899 27.69H25.1999L25.2399 27.71L45.3399 15.96L24.9999 4.20999Z" fill="url(#paint2_linear_122_414)"/>
<path d="M25.2399 27.71L19.0699 31.31C20.2599 33.69 22.7299 35.33 25.5699 35.33C27.9519 35.33 30.1229 34.174 31.4809 32.267L38.5569 36.198C35.7599 40.666 30.8969 43.4 25.5699 43.4C19.7699 43.4 14.6999 40.16 12.0999 35.39L4.3999 39.89L24.9999 51.79L45.5999 39.89V39.67V16.11L45.3399 15.96L25.2399 27.71ZM43.9999 27H41.9999V29H43.9999V31H41.9999V33H39.9999V31H37.9999V33H35.9999V31H33.9999V29H35.9999V27H33.9999V25H35.9999V23H37.9999V25H39.9999V23H41.9999V25H43.9999V27ZM37.9999 27H39.9999V29H37.9999V27ZM48.0999 12.93L26.4999 0.46C25.5699 -0.07 24.4299 -0.07 23.4999 0.46L1.8999 12.93C0.979902 13.47 0.399902 14.46 0.399902 15.53V40.47C0.399902 41.54 0.979902 42.53 1.8999 43.07L23.4999 55.54C24.4299 56.07 25.5699 56.07 26.4999 55.54L48.0999 43.07C49.0199 42.53 49.5999 41.54 49.5999 40.47V15.53C49.5999 14.46 49.0199 13.47 48.0999 12.93ZM47.5999 40.47C47.5999 40.83 47.4099 41.16 47.0999 41.34L25.4999 53.81C25.1899 53.98 24.8099 53.98 24.4999 53.81L2.8999 41.34C2.5899 41.16 2.3999 40.83 2.3999 40.47V15.53C2.3999 15.17 2.5899 14.84 2.8999 14.66L24.4999 2.19C24.8099 2.02 25.1899 2.02 25.4999 2.19L47.0999 14.66C47.4099 14.84 47.5999 15.17 47.5999 15.53V40.47Z" fill="url(#paint3_linear_122_414)"/>
<defs>
<linearGradient id="paint0_linear_122_414" x1="8.2499" y1="28.704" x2="8.2499" y2="44.615" gradientUnits="userSpaceOnUse">
<stop stop-color="#8AB4FF"/>
<stop offset="0.699" stop-color="#E492FF"/>
</linearGradient>
<linearGradient id="paint1_linear_122_414" x1="8.2499" y1="26.671" x2="8.2499" y2="39.89" gradientUnits="userSpaceOnUse">
<stop stop-color="#8AB4FF"/>
<stop offset="0.699" stop-color="#E492FF"/>
</linearGradient>
<linearGradient id="paint2_linear_122_414" x1="24.8699" y1="6.70039" x2="24.8699" y2="31.1521" gradientUnits="userSpaceOnUse">
<stop stop-color="#8AB4FF"/>
<stop offset="1" stop-color="#E492FF"/>
</linearGradient>
<linearGradient id="paint3_linear_122_414" x1="24.9999" y1="4.0581" x2="24.9999" y2="53.7844" gradientUnits="userSpaceOnUse">
<stop stop-color="#1A6DFF"/>
<stop offset="1" stop-color="#C822FF"/>
</linearGradient>
</defs>
</svg>
