<svg width="94" height="92" viewBox="0 0 94 92" fill="none" xmlns="http://www.w3.org/2000/svg">
<path fill-rule="evenodd" clip-rule="evenodd" d="M47.0381 0C21.5802 0 1 21.0832 1 47.1661C1 68.0155 14.1864 85.6641 32.4795 91.9105C34.7666 92.3801 35.6044 90.8956 35.6044 89.6469C35.6044 88.5535 35.529 84.8054 35.529 80.9002C22.7223 83.712 20.0555 75.2777 20.0555 75.2777C17.9974 69.8114 14.9479 68.4065 14.9479 68.4065C10.7563 65.5171 15.2532 65.5171 15.2532 65.5171C19.9028 65.8296 22.3426 70.3586 22.3426 70.3586C26.4579 77.5423 33.0892 75.5125 35.7571 74.2629C36.1378 71.2173 37.3581 69.109 38.6539 67.9379C28.4396 66.8444 17.693 62.784 17.693 44.6668C17.693 39.5129 19.5211 35.2962 22.418 32.0168C21.9609 30.8457 20.3598 26.0033 22.8759 19.5221C22.8759 19.5221 26.7632 18.2725 35.5281 24.3636C39.2806 23.3312 43.1506 22.806 47.0381 22.8015C50.9253 22.8015 54.8879 23.3487 58.5471 24.3636C67.3129 18.2725 71.2002 19.5221 71.2002 19.5221C73.7163 26.0033 72.1143 30.8457 71.6572 32.0168C74.6304 35.2962 76.3832 39.5129 76.3832 44.6668C76.3832 62.784 65.6365 66.7658 55.3459 67.9379C57.0233 69.4214 58.4708 72.2322 58.4708 76.6836C58.4708 83.0086 58.3954 88.0848 58.3954 89.646C58.3954 90.8956 59.2341 92.3801 61.5203 91.9114C79.8134 85.6631 92.9998 68.0155 92.9998 47.1661C93.0752 21.0832 72.4196 0 47.0381 0Z" fill="#3FC1C9"/>
</svg>
