<svg width="94" height="92" viewBox="0 0 94 92" fill="none" xmlns="http://www.w3.org/2000/svg">
<g clip-path="url(#clip0_144_124)">
<path fill-rule="evenodd" clip-rule="evenodd" d="M47.0381 0C21.5577 0 0.959229 21.0832 0.959229 47.1661C0.959229 68.0155 14.1574 85.6641 32.4667 91.9105C34.7558 92.3801 35.5943 90.8956 35.5943 89.6469C35.5943 88.5535 35.5189 84.8054 35.5189 80.9002C22.7008 83.712 20.0316 75.2777 20.0316 75.2777C17.9717 69.8114 14.9195 68.4065 14.9195 68.4065C10.7241 65.5171 15.2251 65.5171 15.2251 65.5171C19.8788 65.8296 22.3207 70.3586 22.3207 70.3586C26.4397 77.5423 33.0769 75.5125 35.7471 74.2629C36.1282 71.2173 37.3496 69.109 38.6465 67.9379C28.4232 66.8444 17.667 62.784 17.667 44.6668C17.667 39.5129 19.4968 35.2962 22.3962 32.0168C21.9387 30.8457 20.3363 26.0033 22.8546 19.5221C22.8546 19.5221 26.7453 18.2725 35.5179 24.3636C39.2738 23.3312 43.1472 22.806 47.0381 22.8015C50.9288 22.8015 54.895 23.3487 58.5574 24.3636C67.331 18.2725 71.2217 19.5221 71.2217 19.5221C73.74 26.0033 72.1366 30.8457 71.6791 32.0168C74.6549 35.2962 76.4093 39.5129 76.4093 44.6668C76.4093 62.784 65.6531 66.7658 55.3534 67.9379C57.0322 69.4214 58.481 72.2322 58.481 76.6836C58.481 83.0086 58.4055 88.0848 58.4055 89.646C58.4055 90.8956 59.245 92.3801 61.5332 91.9114C79.8425 85.6631 93.0406 68.0155 93.0406 47.1661C93.1161 21.0832 72.4422 0 47.0381 0Z" fill="#FF2B51"/>
</g>
<defs>
<clipPath id="clip0_144_124">
<rect width="94" height="92" fill="white"/>
</clipPath>
</defs>
</svg>
