<svg width="22" height="22" viewBox="0 0 22 22" fill="none" xmlns="http://www.w3.org/2000/svg">
<circle cx="11" cy="11" r="11" fill="#B2A6CE"/>
<circle cx="11" cy="11" r="9" stroke="white"/>
<path d="M8.37133 7.15511C8.33283 7.06128 8.24146 7 8.14004 7H6.37278C6.19498 7 6.074 7.18039 6.14149 7.34489L9.62867 15.8449C9.66717 15.9387 9.75854 16 9.85996 16H11.6272C11.805 16 11.926 15.8196 11.8585 15.6551L8.37133 7.15511Z" fill="white"/>
<path d="M15.6093 7H14.1545C14.0598 7 13.9732 7.0535 13.9309 7.1382L12.0502 10.8996C12.0183 10.9635 12.0152 11.0379 12.0417 11.1042L12.7843 12.9607C12.8658 13.1645 13.1514 13.1719 13.2434 12.9726L15.8363 7.35476C15.9127 7.18911 15.7917 7 15.6093 7Z" fill="white"/>
</svg>
