<svg width="70" height="66" viewBox="0 0 70 66" fill="none" xmlns="http://www.w3.org/2000/svg">
<path d="M27 5C27 2.23858 29.2386 0 32 0H38C40.7614 0 43 2.23858 43 5V21H27V5Z" fill="black"/>
<path fill-rule="evenodd" clip-rule="evenodd" d="M7.59619 23.4074C10.1048 22.0806 12.9647 21.3292 16.0001 21.3292H20.7771C21.8829 19.8635 23.3269 18.6452 25.0001 17.7782V7C15.9955 9.07555 9.55324 15.7183 7.59619 23.4074Z" fill="black"/>
<path fill-rule="evenodd" clip-rule="evenodd" d="M45 17.7782C46.6732 18.6452 48.1172 19.8635 49.223 21.3292H54C57.0354 21.3292 59.8953 22.0806 62.4039 23.4074C60.4469 15.7183 54.0046 9.07555 45 7V17.7782Z" fill="black"/>
<path fill-rule="evenodd" clip-rule="evenodd" d="M16 23H18.0449C18.4038 25.8188 20.8589 28 23.8335 28H35V53.0224C32.1968 53.275 30 55.631 30 58.5C30 61.369 32.1968 63.725 35 63.9776V66H16C7.16357 66 0 58.8366 0 50V39C0 30.1634 7.16357 23 16 23ZM36 66H54C62.8364 66 70 58.8366 70 50V39C70 30.1634 62.8364 23 54 23H52.9551C52.5962 25.8188 50.1411 28 47.1665 28H36V53.0224C38.8032 53.275 41 55.631 41 58.5C41 61.369 38.8032 63.725 36 63.9776V66ZM51.7769 23H19.2231C19.5732 25.1855 21.5039 26.8571 23.8335 26.8571H47.1665C49.4961 26.8571 51.4268 25.1855 51.7769 23ZM39.8999 58.5C39.8999 60.9301 37.9302 62.9 35.5 62.9C33.0698 62.9 31.1001 60.9301 31.1001 58.5C31.1001 56.0699 33.0698 54.1 35.5 54.1C37.9302 54.1 39.8999 56.0699 39.8999 58.5Z" fill="black"/>
</svg>
